<svg xmlns="http://www.w3.org/2000/svg" width="96" height="96" viewBox="0 0 239 239" role="img" aria-labelledby="laufdiktat-title"><title id="laufdiktat-title">Laufdiktat allein</title><defs><linearGradient id="tone" x1="0" y1="0" x2="0" y2="1"><stop offset="20%" stop-color="#caadf2"/><stop offset="50%" stop-color="#c7aaf2"/><stop offset="80%" stop-color="#cbaff3"/><stop offset="92%" stop-color="#b19ad5"/></linearGradient></defs><path d="M0 0 C0.319 -0.002 0.319 -0.002 1.935 -0.014 C4.055 -0.026 6.175 -0.025 8.295 -0.023 C9.823 -0.029 11.352 -0.036 12.88 -0.043 C17.019 -0.061 21.157 -0.066 25.296 -0.067 C27.887 -0.069 30.477 -0.073 33.068 -0.078 C42.12 -0.097 51.173 -0.105 60.225 -0.103 C68.64 -0.102 77.054 -0.123 85.468 -0.155 C92.711 -0.181 99.953 -0.192 107.196 -0.19 C111.514 -0.19 115.831 -0.195 120.148 -0.217 C124.214 -0.236 128.279 -0.236 132.344 -0.222 C133.828 -0.22 135.311 -0.224 136.794 -0.236 C155.675 -0.381 172.924 6.502 183.029 23.517 C187.875 33.3 189.875 42.239 189.812 53.126 C189.819 54.363 189.828 55.6 189.838 56.836 C189.86 60.159 189.858 63.481 189.849 66.804 C189.844 69.597 189.851 72.389 189.858 75.182 C189.875 81.782 189.872 88.381 189.855 94.981 C189.838 101.746 189.854 108.509 189.886 115.274 C189.913 121.12 189.92 126.967 189.912 132.814 C189.907 136.289 189.909 139.763 189.93 143.237 C190.05 165.656 189.204 186.953 169.279 201.267 C168.687 201.706 168.095 202.144 167.486 202.596 C156.938 209.816 146.207 210.86 133.878 210.785 C132.369 210.79 130.859 210.798 129.35 210.806 C125.286 210.824 121.222 210.817 117.158 210.805 C112.884 210.795 108.609 210.804 104.335 210.81 C97.16 210.818 89.985 210.808 82.809 210.789 C74.541 210.767 66.273 210.774 58.004 210.796 C50.876 210.814 43.748 210.817 36.62 210.806 C32.375 210.8 28.131 210.799 23.886 210.813 C19.893 210.824 15.901 210.816 11.909 210.793 C10.453 210.788 8.997 210.789 7.541 210.798 C-3.607 210.86 -14.115 209.686 -23.284 202.642 C-24.069 202.052 -24.854 201.462 -25.663 200.853 C-26.342 200.33 -27.021 199.807 -27.721 199.267 C-28.308 198.909 -28.894 198.551 -29.499 198.181 C-30.721 197.267 -30.721 197.267 -30.721 195.267 C-31.381 195.267 -32.041 195.267 -32.721 195.267 C-46.957 178.736 -46.036 157.56 -45.99 137.13 C-45.985 134.131 -45.99 131.133 -45.993 128.134 C-45.996 123.102 -45.992 118.07 -45.982 113.038 C-45.971 107.262 -45.975 101.487 -45.986 95.711 C-45.995 90.708 -45.996 85.706 -45.991 80.703 C-45.988 77.734 -45.987 74.766 -45.994 71.797 C-46.057 31.339 -46.057 31.339 -34.721 17.267 C-34.061 17.267 -33.401 17.267 -32.721 17.267 C-32.435 16.68 -32.149 16.092 -31.854 15.486 C-26.557 5.111 -10.814 0.032 0 0 Z " fill="url(#tone)" transform="translate(47.72135925292969,13.732574462890625)"/><path d="M0 0 C0.73 0.29 1.459 0.58 2.211 0.879 C6.705 2.875 10.559 5.043 12 10 C11.898 12.536 11.549 14.965 11.16 17.473 C10.943 20.892 12.005 23.172 13.344 26.258 C14.345 28.916 14.119 30.412 13 33 C11.783 34.281 10.56 35.56 9.254 36.75 C8 38 8 38 6.562 40.5 C2.474 47.041 -2.563 48.893 -10 50 C-8.9 51.1 -7.8 52.198 -6.695 53.293 C-5.383 54.614 -4.09 55.954 -2.805 57.301 C-2.414 57.705 -2.414 57.705 -0.438 59.75 C0.306 60.529 1.05 61.307 1.816 62.109 C5.315 65.138 6.774 65.32 11.277 64.145 C12.501 63.712 13.721 63.267 14.938 62.812 C15.545 62.603 16.153 62.394 16.779 62.178 C19.885 61.049 21.975 60.02 24.566 57.887 C27 56 27 56 30.207 55.68 C33 55 33 55 34.137 51.945 C34.348 50.676 34.531 49.402 34.688 48.125 C35.9 39.613 35.9 39.613 39 38 C41.783 37.949 44.446 38.365 47.188 38.812 C47.937 38.921 48.687 39.03 49.459 39.143 C51.308 39.413 53.154 39.705 55 40 C54.87 39.18 54.74 38.36 54.605 37.516 C53.337 27.607 53.337 27.607 56.188 25 C59 24 59 24 61.027 25.5 C63.785 28.995 64.719 32.624 65.891 36.867 C66.994 40.39 67.865 42.202 71.09 44.129 C74.48 46.309 74.774 47.049 75.188 50.938 C75.648 54.214 75.927 55.881 77.688 58.75 C79.53 61.908 79.094 63.573 78 67 C74.979 70.992 74.979 70.992 71.555 71.02 C67.17 72.702 66.988 77.11 65.875 81.375 C65.402 83.114 64.92 84.851 64.43 86.586 C64.226 87.36 64.022 88.134 63.812 88.931 C62.886 91.292 62.029 92.482 60 94 C53.197 93.753 46.674 91.753 40.125 90 C39.081 89.727 38.037 89.453 36.961 89.172 C27.237 86.602 27.237 86.602 26.312 84.25 C25.946 81.611 26.43 79.586 27 77 C26.566 77.169 26.566 77.169 24.367 78.023 C23.203 78.474 22.039 78.925 20.875 79.375 C20.305 79.597 19.735 79.818 19.148 80.047 C6.694 84.859 0.197 85.044 -11.199 77.555 C-11.496 77.463 -11.496 77.463 -13 77 C-13.977 78.781 -13.977 78.781 -14.625 81.5 C-14.86 82.432 -15.094 83.364 -15.336 84.324 C-15.555 85.207 -15.774 86.09 -16 87 C-16.402 88.11 -16.816 89.215 -17.25 90.312 C-18.131 93.47 -18.062 94.908 -17 98 C-14.672 99.809 -14.672 99.809 -11.75 101.438 C-3.617 105.998 -0.493 111.065 2.188 119.812 C2.434 120.569 2.681 121.325 2.936 122.104 C4.21 126.09 5.175 129.955 5.879 134.082 C6.359 136.324 6.359 136.324 7 138 C9.172 138.555 9.172 138.555 11.75 137.875 C16.915 136.858 20.09 137.09 24 141 C24.706 145.235 23.566 146.888 20.524 149.778 C17.977 151.82 15.199 153.036 12.188 154.25 C11.879 154.377 11.879 154.377 10.317 155.017 C5.828 156.796 1.891 158.272 -3 158 C-6.742 154.947 -7.49 151.585 -8.449 147.078 C-9.007 144.973 -9.772 143.345 -10.812 141.438 C-12.917 137.474 -14.34 133.372 -15.75 129.125 C-15.973 128.458 -16.196 127.791 -16.425 127.103 C-18 122.271 -18 122.271 -18 120 C-19.801 119.289 -19.801 119.289 -22.312 118.625 C-27.337 117.263 -31.994 115.389 -36.75 113.281 C-37.493 113.188 -38.235 113.096 -39 113 C-40.055 115.063 -40.055 115.063 -41 118 C-42.33 119.92 -43.646 121.705 -45.125 123.5 C-45.52 123.982 -45.916 124.464 -46.323 124.96 C-54.211 134.227 -62.359 135.707 -74 134 C-77.185 133.272 -80.309 132.45 -83.441 131.523 C-88.605 130.467 -90.5 132.205 -93.875 136 C-97.233 139.483 -99.082 141.343 -104 141 C-106.666 138.943 -107.454 137.664 -107.125 134.312 C-106.405 129.472 -104.636 125.11 -102.75 120.625 C-102.463 119.923 -102.175 119.221 -101.879 118.497 C-100.003 114.26 -98.472 111.862 -94 110 C-91.413 110.185 -89.726 110.48 -87.607 111.998 C-85.687 113.195 -84.14 113.491 -81.91 113.852 C-81.126 113.98 -80.341 114.109 -79.533 114.242 C-79.126 114.305 -79.126 114.305 -77.062 114.625 C-76.251 114.759 -75.44 114.893 -74.604 115.031 C-64.645 116.632 -64.645 116.632 -62.77 114.793 C-62.454 114.263 -62.138 113.733 -61.812 113.188 C-61.489 112.665 -61.165 112.143 -60.832 111.605 C-60 110 -60 110 -59 107 C-59.784 106.711 -60.567 106.423 -61.375 106.125 C-64 105 -64 105 -64.844 102.695 C-65.041 99.295 -64.229 98.367 -62.125 95.75 C-59.861 92.616 -58.683 90.688 -58.625 86.812 C-58.415 81.395 -55.683 77.443 -52.881 72.96 C-50.823 69.636 -49.477 66.967 -49 63 C-58.545 63.386 -63.44 66.551 -68 75 C-68.764 77.61 -69.221 80.107 -69.598 82.797 C-70.208 86.141 -71.416 87.835 -74 90 C-75.708 90.226 -77.418 90.445 -79.137 90.559 C-82.242 91.294 -84.086 93.494 -86.363 95.629 C-88.498 97.417 -90.231 97.921 -93 98 C-95 97 -95 97 -95.312 94.375 C-94.988 90.874 -94.071 88.763 -92.586 85.656 C-92 84 -92 84 -92.562 81.438 C-93.345 77.078 -90.103 74.273 -87.375 71.125 C-86 70 -86 70 -84 70 C-83.517 68.566 -83.041 67.129 -82.603 65.68 C-77.75 52.163 -65.773 45.442 -52.623 42.461 C-50.083 42.015 -47.747 41.875 -45.172 41.859 C-44.29 41.84 -43.408 41.821 -42.5 41.801 C-40.651 41.767 -38.802 41.749 -36.953 41.746 C-34.533 41.678 -32.345 41.605 -30 41 C-28.781 38.516 -28.781 38.516 -29 36 C-30.75 35 -30.75 35 -33 34 C-36.344 30.037 -36.448 26.092 -36.691 21.109 C-37 19 -37 19 -39 18 C-41.829 19.886 -43.687 21.389 -45.25 24.438 C-49.413 30.533 -56.258 32.887 -63.445 32.484 C-70.916 31.068 -76.891 27.376 -81 21 C-79.494 17.988 -77.81 18.765 -74.562 18.562 C-68.005 17.634 -65.279 14.998 -61.387 9.987 C-57.13 4.519 -52.944 3.553 -46.277 3.664 C-43.2 4.118 -41.115 5.34 -38.605 7.125 C-36.552 8.244 -35.305 8.352 -33 8 C-31.797 6.828 -31.797 6.828 -30.75 5.25 C-23.105 -4.762 -10.575 -4.233 0 0 Z M-4.375 17.25 C-14.699 24.133 -14.699 24.133 -17.125 23.062 C-17.744 22.712 -18.362 22.361 -19 22 C-20.75 22.562 -20.75 22.562 -22 24 C-22.651 28.121 -21.583 29.879 -19 33 C-19 33.66 -19 34.32 -19 35 C-19.66 35 -20.32 35 -21 35 C-23.173 38.595 -25.011 41.73 -24 46 C-22.275 48.016 -20.642 49.457 -18 50 C-16.312 47.312 -16.312 47.312 -15.406 45.531 C-12.802 42.696 -9 43.315 -5.363 43.301 C-4.583 43.202 -3.804 43.102 -3 43 C-2.67 42.01 -2.34 41.02 -2 40 C-2.66 40 -3.32 40 -4 40 C-4.125 38 -4.125 38 -4 36 C-3.66 36.144 -3.66 36.144 -1.938 36.875 C2.078 37.046 3.841 35.764 6.742 33.082 C9.881 27.887 6.476 20.049 4 15 C-0.095 13.635 -0.884 14.897 -4.375 17.25 Z M59 38 C59.375 40 59.375 40 60 42 C60.66 42 61.32 42 62 42 C61.625 40 61.625 40 61 38 C60.34 38 59.68 38 59 38 Z M40 46 C39.043 48.715 39.043 48.715 38.188 51.938 C37.892 52.998 37.597 54.059 37.293 55.152 C36.935 58.636 37.453 58.848 40 61 C40.802 63.779 40.797 66.218 40 69 C38.327 70.473 36.563 71.5 34.656 72.648 C32.05 74.775 31.596 76.926 31.504 80.211 C32.314 83.131 34.474 83.608 37.203 84.344 C38.126 84.56 39.049 84.777 40 85 C41.246 85.359 42.491 85.724 43.734 86.094 C45.072 86.481 46.411 86.867 47.75 87.25 C48.075 87.344 48.075 87.344 49.719 87.819 C55.919 89.488 55.919 89.488 59 88 C60.011 85.85 60.689 83.999 61.316 81.734 C61.5 81.104 61.684 80.474 61.873 79.824 C62.256 78.488 62.629 77.15 62.994 75.809 C63.559 73.761 64.173 71.732 64.791 69.699 C65.157 68.399 65.519 67.099 65.879 65.797 C66.067 65.191 66.255 64.586 66.449 63.962 C67.078 61.506 67.516 59.696 65.943 57.576 C64.65 56.361 63.326 55.179 62 54 C62.083 52.969 62.165 51.938 62.25 50.875 C62 48 62 48 60.402 46.988 C54.908 45.002 44.483 41.517 40 46 Z M-47.5 47.938 C-47.812 47.981 -47.812 47.981 -49.39 48.2 C-53.871 48.871 -53.871 48.871 -55 50 C-57.183 50.496 -59.377 50.898 -61.578 51.305 C-66.69 52.772 -69.567 55.267 -72.5 59.625 C-73.096 60.505 -73.691 61.386 -74.305 62.293 C-75.871 64.794 -77.263 67.321 -78.625 69.938 C-80.568 73.623 -82.371 74.926 -86 77 C-86.75 79.75 -86.75 79.75 -86 82 C-82.562 81.625 -82.562 81.625 -80.629 81.102 C-80.36 81.085 -80.36 81.085 -79 81 C-78.67 81.99 -78.34 82.98 -78 84 C-77.505 83.835 -77.505 83.835 -75 83 C-74.777 80.496 -74.777 80.496 -74.938 77.438 C-75.09 74.371 -75.09 74.371 -75 72 C-74.34 72 -73.68 72 -73 72 C-71.789 70.472 -70.631 68.901 -69.5 67.312 C-63.096 59.028 -56.714 56.449 -46.438 56.938 C-45.722 56.97 -45.007 57.003 -44.27 57.036 C-39.302 57.474 -39.302 57.474 -37.848 60.004 C-37.898 60.663 -37.948 61.321 -38 62 C-38.99 62.33 -39.98 62.66 -41 63 C-42.043 64.427 -42.043 64.427 -42.973 66.238 C-43.315 66.894 -43.657 67.549 -44.01 68.225 C-44.357 68.914 -44.705 69.603 -45.062 70.312 C-45.414 70.99 -45.765 71.667 -46.127 72.365 C-46.803 73.672 -47.472 74.982 -48.133 76.295 C-48.808 77.623 -49.52 78.931 -50.246 80.23 C-51.686 83.611 -51.686 83.611 -51 86 C-48.667 87.168 -46.662 87.953 -44.188 88.688 C-43.507 88.892 -42.826 89.096 -42.125 89.306 C-40.743 89.705 -39.357 90.092 -37.967 90.465 C-36.22 90.94 -34.491 91.481 -32.766 92.031 C-29.69 92.745 -27.979 93.091 -25 92 C-22.381 88.187 -20.98 84.245 -19.601 79.855 C-18.759 77.256 -17.692 74.764 -16.625 72.25 C-15 68.26 -15 68.26 -15 66 C-11.469 67.412 -10.657 68.686 -9 72 C-6 72 -6 72 -4.188 69.75 C-2.714 66.338 -3.111 66.034 -5 63 C-9.097 57.816 -12.241 54.469 -18.977 54.336 C-22.423 53.764 -24.703 51.557 -27.336 49.375 C-32.798 44.862 -40.966 47.019 -47.5 47.938 Z M66 50 C66 50.99 66 51.98 66 53 C66.99 53 67.98 53 69 53 C69 52.01 69 51.02 69 50 C68.01 50 67.02 50 66 50 Z M25 66 C25 68.375 25 68.375 26 70 C29.537 69.869 32.917 67.611 36 66 C31.678 60.039 29.163 59.458 25 66 Z M72 61 C71.67 62.32 71.34 63.64 71 65 C71.66 65 72.32 65 73 65 C72.67 63.68 72.34 62.36 72 61 Z M14.312 68.438 C10.519 69.471 7.361 70.159 3.438 69.875 C0 70 0 70 -2.188 72.312 C-3 75 -3 75 -2 76.75 C3.056 79.91 6.882 78.739 12.062 76.75 C12.368 76.641 12.368 76.641 13.916 76.09 C17.324 74.83 20.347 73.567 23 71 C23 70.01 23 69.02 23 68 C19.354 66.785 17.96 67.387 14.312 68.438 Z M-87 87 C-87.33 87.99 -87.66 88.98 -88 90 C-87.34 90 -86.68 90 -86 90 C-86.33 89.01 -86.66 88.02 -87 87 Z M-99.547 127.816 C-100.05 130.241 -99.78 131.676 -99 134 C-98.807 133.765 -98.807 133.765 -97.828 132.574 C-93.381 127.257 -93.381 127.257 -90.688 125.438 C-88.147 123.273 -88.138 121.234 -88 118 C-94.931 111.069 -97.649 122.45 -99.547 127.816 Z M-2 145 C-2.438 148.062 -2.438 148.062 -2 151 C1.908 153.124 5.547 150.891 9.25 149.25 C9.575 149.117 9.575 149.117 11.219 148.445 C13.078 147.641 13.078 147.641 16 146 C16 145.01 16 144.02 16 143 C13.472 142.711 11.215 142.629 8.688 142.688 C7.997 142.684 7.307 142.681 6.596 142.678 C0.51 142.742 0.51 142.742 -2 145 Z " fill="#211f1b" transform="translate(138,41)"/><path d="M0 0 C0.66 0 1.32 0 2 0 C2.125 2 2.125 2 2 4 C1.01 3.67 0.02 3.34 -1 3 C-0.67 2.01 -0.34 1.02 0 0 Z " fill="#211f1b" transform="translate(137,63)"/><path d="M0 0 C0.33 0 0.66 0 1 0 C1.103 2.27 1.14 4.51 1.133 6.781 C1.134 7.469 1.135 8.157 1.136 8.866 C1.136 10.326 1.135 11.785 1.13 13.245 C1.125 15.49 1.13 17.735 1.137 19.98 C1.136 21.393 1.135 22.806 1.133 24.219 C1.135 24.897 1.137 25.575 1.139 26.274 C1.131 27.85 1.072 29.425 1 31 C0.67 31 0.34 31 0 31 C-0.103 28.73 -0.14 26.49 -0.133 24.219 C-0.134 23.531 -0.135 22.843 -0.136 22.134 C-0.136 20.674 -0.135 19.215 -0.13 17.755 C-0.125 15.51 -0.13 13.265 -0.137 11.02 C-0.136 9.607 -0.135 8.194 -0.133 6.781 C-0.135 6.103 -0.137 5.425 -0.139 4.726 C-0.131 3.15 -0.072 1.575 0 0 Z " fill="#211f1b" transform="translate(2,64)"/><path d="M0 0 C0.407 0.08 0.407 0.08 2.469 0.484 C4.5 1.25 4.5 1.25 5.5 4.25 C4.041 4.163 2.582 4.055 1.125 3.938 C0.313 3.879 -0.499 3.821 -1.336 3.762 C-3.865 3.164 -4.491 2.615 -5.5 0.25 C-3.837 -1.413 -2.182 -0.456 0 0 Z " fill="#211f1b" transform="translate(188.5,92.75)"/><path d="M0 0 C4.45 -0.767 8.811 0.944 12 4 C7.643 5.188 4.335 5.105 0 4 C-0.434 1.945 -0.434 1.945 0 0 Z " fill="#211f1b" transform="translate(184,101)"/><path d="M0 0 C2.948 0.256 5.343 0.672 8 2 C7.67 2.99 7.34 3.98 7 5 C5.371 4.961 5.371 4.961 3.438 4.375 C2.797 4.197 2.156 4.019 1.496 3.836 C1.002 3.56 0.509 3.284 0 3 C0 2.01 0 1.02 0 0 Z " fill="#211f1b" transform="translate(184,109)"/><path d="M0 0 C1.168 0.086 2.335 0.195 3.5 0.312 C3.825 0.342 3.825 0.342 5.469 0.488 C5.974 0.657 6.479 0.826 7 1 C7 1.99 7 2.98 7 4 C4.062 3.875 4.062 3.875 1 3 C0.67 2.01 0.34 1.02 0 0 Z " fill="#211f1b" transform="translate(180,117)"/><path d="M0 0 C0.33 0 0.66 0 1 0 C1.102 1.68 1.128 3.365 1.129 5.049 C1.133 6.15 1.136 7.251 1.139 8.386 C1.137 9.601 1.135 10.816 1.133 12.031 C1.133 13.264 1.134 14.497 1.136 15.731 C1.137 18.32 1.135 20.909 1.13 23.499 C1.125 26.828 1.128 30.157 1.134 33.487 C1.138 36.034 1.136 38.582 1.134 41.13 C1.133 42.358 1.134 43.586 1.136 44.814 C1.139 46.527 1.134 48.239 1.129 49.951 C1.129 50.928 1.128 51.905 1.127 52.912 C1.085 53.601 1.043 54.29 1 55 C0.67 55 0.34 55 0 55 C-0.102 53.32 -0.128 51.635 -0.129 49.951 C-0.133 48.85 -0.136 47.749 -0.139 46.614 C-0.137 45.399 -0.135 44.184 -0.133 42.969 C-0.133 41.736 -0.134 40.503 -0.136 39.269 C-0.137 36.68 -0.135 34.091 -0.13 31.501 C-0.125 28.172 -0.128 24.843 -0.134 21.513 C-0.138 18.966 -0.136 16.418 -0.134 13.87 C-0.133 12.642 -0.134 11.414 -0.136 10.186 C-0.139 8.473 -0.134 6.761 -0.129 5.049 C-0.129 4.072 -0.128 3.095 -0.127 2.088 C-0.085 1.399 -0.043 0.71 0 0 Z " fill="#211f1b" transform="translate(2,119)"/><path d="M0 0 C2.295 -0.388 2.295 -0.388 5.469 -0.398 C6.597 -0.402 7.725 -0.406 8.887 -0.41 C9.479 -0.404 10.071 -0.398 10.681 -0.391 C12.493 -0.375 14.302 -0.391 16.113 -0.41 C16.677 -0.408 16.677 -0.408 19.531 -0.398 C20.579 -0.395 21.626 -0.392 22.705 -0.388 C23.462 -0.26 24.22 -0.132 25 0 C25 0.99 25 1.98 25 3 C22.571 4.214 20.993 4.129 18.281 4.133 C17.349 4.134 16.417 4.135 15.457 4.137 C14.481 4.133 13.505 4.129 12.5 4.125 C12.012 4.127 12.012 4.127 9.543 4.137 C9.077 4.136 9.077 4.136 6.719 4.133 C5.862 4.132 5.006 4.131 4.123 4.129 C2 4 2 4 0 3 C0 2.01 0 1.02 0 0 Z " fill="#211f1b" transform="translate(163,148)"/><path d="M0 0 C0.33 0.99 0.66 1.98 1 3 C-1.708 3.029 -4.417 3.047 -7.125 3.062 C-7.505 3.067 -7.505 3.067 -9.43 3.088 C-17.977 3.125 -17.977 3.125 -22 2 C-22 1.01 -22 0.02 -22 -1 C-15.189 -2.963 -6.638 -2.4 0 0 Z " fill="#211f1b" transform="translate(186,165)"/></svg>
